<svg width="34" height="34" viewBox="0 0 74 74" fill="none" xmlns="http://www.w3.org/2000/svg"><path fill-rule="evenodd" clip-rule="evenodd" d="M28.0552 1.98199C16.1258 5.08982 6.67065 13.8892 2.77137 25.5118C1.17725 30.2638 -1.18162 29.736 21.6591 29.736C43.5089 29.736 42.8613 29.8738 44.3404 27.4483C44.4117 27.3314 44.7367 26.6051 45.0504 25.4685L45.0518 24.6514H27.0853C10.6095 24.6514 9.11882 24.6016 9.11882 24.0503C9.11882 23.7198 10.1943 21.8326 11.5089 19.8565C15.451 13.9314 21.6892 9.33227 28.7187 7.1691C31.0191 6.46088 32.2561 6.32976 36.7038 6.32068C39.9809 6.31415 42.7198 6.49792 43.963 6.80772C62.5654 11.4428 72.8008 31.1761 65.6524 48.622C61.1081 59.7121 50.8378 67.0947 39.0249 67.7626C33.2883 68.0873 28.094 67.0522 23.0928 64.5883C18.9405 62.5428 11.2759 55.5946 11.7648 54.3194C11.9172 53.9221 13.3027 53.8015 18.4008 53.7416C24.2481 53.6733 24.9554 53.7416 25.8628 53.1181C27.3856 52.0716 27.9873 50.4347 27.9902 49.4392L27.9927 48.622H15.6735C8.34353 48.622 3.26863 48.7608 3.14268 48.9649C2.81057 49.5024 5.30955 54.5973 7.40165 57.6466C12.2468 64.7096 19.7931 69.9298 28.2682 72.081C32.6005 73.1807 40.6005 73.3169 44.7941 72.3625C56.7174 69.6487 66.4734 61.2767 70.8187 50.0294C72.4052 45.9228 73.0001 42.3323 72.9943 36.8949C72.9838 26.6475 70.0493 19.3498 62.9479 11.9124C58.2248 6.96535 52.4551 3.59529 45.822 1.90899C40.9435 0.66905 32.97 0.701733 28.0552 1.98199ZM1.06292 37.0907C0.981254 37.3406 0.978713 38.4846 1.05748 39.633L1.20084 41.7214H16.9145C34.3917 41.7214 34.2005 42.4039 35.5046 39.284C36.933 35.8665 38.4884 36.6367 18.7761 36.6367C5.04568 36.6367 1.17907 36.7359 1.06292 37.0907Z" fill="#04B3EB" stroke="#04B3EB" stroke-width="1.81818"></path></svg>