<svg width="730" height="204" viewBox="0 0 730 204" fill="none" xmlns="http://www.w3.org/2000/svg">
    <path fill-rule="evenodd" clip-rule="evenodd" d="M77.5041 5.70046C44.6531 14.247 18.6158 38.4454 7.87798 70.4073C3.48812 83.4754 -3.00773 82.0241 59.8907 82.0241C120.06 82.0241 118.277 82.4029 122.35 75.7328C122.547 75.4114 123.441 73.4139 124.305 70.2885L124.309 68.0412H74.8334C29.4625 68.0412 25.3575 67.9044 25.3575 66.3883C25.3575 65.4794 28.319 60.2897 31.9393 54.8554C42.795 38.5613 59.9737 25.9138 79.3312 19.965C85.6662 18.0174 89.0725 17.6569 101.321 17.6319C110.345 17.6139 117.887 18.1193 121.311 18.9712C172.538 31.7176 200.724 85.9843 181.039 133.961C168.525 164.458 140.243 184.76 107.712 186.597C91.9151 187.49 77.6111 184.644 63.8388 177.868C52.4043 172.243 31.2976 153.135 32.6439 149.628C33.0637 148.536 36.8789 148.204 50.918 148.039C67.0202 147.852 68.9679 148.039 71.4667 146.325C75.6604 143.447 77.3172 138.946 77.3252 136.208L77.3322 133.961H43.4077C23.2225 133.961 9.24732 134.342 8.90049 134.903C7.98593 136.382 14.8676 150.393 20.6288 158.778C33.9713 178.202 54.7522 192.557 78.0908 198.473C90.021 201.497 112.051 201.872 123.6 199.247C156.434 191.784 183.3 168.761 195.266 137.831C199.635 126.538 201.273 116.664 201.257 101.711C201.228 73.5305 193.147 53.4621 173.591 33.0091C160.585 19.4047 144.696 10.137 126.43 5.49972C112.996 2.08989 91.0385 2.17977 77.5041 5.70046ZM3.17327 102.249C2.94838 102.937 2.94138 106.083 3.15828 109.241L3.55308 114.984H46.825C94.9536 114.984 94.427 116.861 98.0182 108.281C101.952 98.8827 106.235 101.001 51.9515 101.001C14.1409 101.001 3.49311 101.274 3.17327 102.249Z" fill="#04B3EB" stroke="#04B3EB" stroke-width="5"/>
    <path d="M266.317 73.7883V94.7883H294.517V108.108H266.317V130.308H298.117V143.988H249.517V60.1083H298.117V73.7883H266.317ZM388.624 60.2283L357.904 143.988H337.504L306.784 60.2283H324.784L347.824 126.828L370.744 60.2283H388.624ZM437.577 144.828C429.737 144.828 422.537 142.988 415.977 139.308C409.417 135.628 404.217 130.548 400.377 124.068C396.537 117.508 394.617 110.108 394.617 101.868C394.617 93.7083 396.537 86.3883 400.377 79.9083C404.217 73.3483 409.417 68.2283 415.977 64.5483C422.537 60.8683 429.737 59.0283 437.577 59.0283C445.497 59.0283 452.697 60.8683 459.177 64.5483C465.737 68.2283 470.897 73.3483 474.657 79.9083C478.497 86.3883 480.417 93.7083 480.417 101.868C480.417 110.108 478.497 117.508 474.657 124.068C470.897 130.548 465.737 135.628 459.177 139.308C452.617 142.988 445.417 144.828 437.577 144.828ZM437.577 129.828C442.617 129.828 447.057 128.708 450.897 126.468C454.737 124.148 457.737 120.868 459.897 116.628C462.057 112.388 463.137 107.468 463.137 101.868C463.137 96.2683 462.057 91.3883 459.897 87.2283C457.737 82.9883 454.737 79.7483 450.897 77.5083C447.057 75.2683 442.617 74.1483 437.577 74.1483C432.537 74.1483 428.057 75.2683 424.137 77.5083C420.297 79.7483 417.297 82.9883 415.137 87.2283C412.977 91.3883 411.897 96.2683 411.897 101.868C411.897 107.468 412.977 112.388 415.137 116.628C417.297 120.868 420.297 124.148 424.137 126.468C428.057 128.708 432.537 129.828 437.577 129.828ZM538.309 73.7883V94.7883H566.509V108.108H538.309V130.308H570.109V143.988H521.509V60.1083H570.109V73.7883H538.309ZM602.177 130.668H629.777V143.988H585.377V60.2283H602.177V130.668ZM669.735 60.2283C678.535 60.2283 686.255 61.9483 692.895 65.3883C699.615 68.8283 704.775 73.7483 708.375 80.1483C712.055 86.4683 713.895 93.8283 713.895 102.228C713.895 110.628 712.055 117.988 708.375 124.308C704.775 130.548 699.615 135.388 692.895 138.828C686.255 142.268 678.535 143.988 669.735 143.988H640.455V60.2283H669.735ZM669.135 129.708C677.935 129.708 684.735 127.308 689.535 122.508C694.335 117.708 696.735 110.948 696.735 102.228C696.735 93.5083 694.335 86.7083 689.535 81.8283C684.735 76.8683 677.935 74.3883 669.135 74.3883H657.255V129.708H669.135Z" fill="#1A2944"/></svg>