<svg width="140" height="28" viewBox="0 0 163 28" fill="none" xmlns="http://www.w3.org/2000/svg">
    <path fill-rule="evenodd" clip-rule="evenodd" d="M0 9.19095C0 8.6987 0 8.45258 0.0957969 8.26457C0.180062 8.09919 0.314521 7.96473 0.479901 7.88046C0.667913 7.78467 0.914034 7.78467 1.40628 7.78467H14.8096C16.2295 7.78467 16.9394 7.78467 17.2682 8.06548C17.5534 8.3091 17.7048 8.67461 17.6754 9.04855C17.6415 9.47957 17.1394 9.98155 16.1354 10.9855L10.2105 16.9105C8.20236 18.9186 7.19833 19.9227 7.13053 20.7847C7.07166 21.5326 7.37443 22.2634 7.94493 22.7507C8.60241 23.3123 10.0224 23.3123 12.8621 23.3123H18.5025C18.9822 23.3123 19.222 23.3123 19.3709 23.4133C19.5011 23.5016 19.5903 23.6385 19.6185 23.7933C19.6507 23.9703 19.5539 24.1897 19.3601 24.6285L18.2416 27.1617C18.1076 27.465 18.0406 27.6167 17.9344 27.728C17.8405 27.8263 17.7251 27.9015 17.5972 27.9477C17.4526 27.9999 17.2868 27.9999 16.9551 27.9999H1.40628C0.914034 27.9999 0.667913 27.9999 0.479901 27.9041C0.314521 27.8199 0.180062 27.6854 0.0957969 27.52C0 27.332 0 27.0859 0 26.5936V9.19095Z" fill="#0C63E4"/>
    <path fill-rule="evenodd" clip-rule="evenodd" d="M33.4829 19.9809C33.4829 20.4731 33.4829 20.7192 33.3871 20.9072C33.3028 21.0726 33.1684 21.2071 33.003 21.2914C32.815 21.3871 32.5689 21.3871 32.0766 21.3871H18.9663C17.5464 21.3871 16.8364 21.3871 16.5077 21.1063C16.2224 20.8627 16.0711 20.4972 16.1005 20.1233C16.1344 19.6922 16.6364 19.1903 17.6404 18.1863L23.5654 12.2613C25.5735 10.2533 26.5775 9.24916 26.6453 8.38711C26.7042 7.63923 26.4014 6.90837 25.8309 6.42112C25.1735 5.85949 23.7535 5.85949 20.9137 5.85949H14.4629C13.9832 5.85949 13.7434 5.85949 13.5945 5.75847C13.4643 5.67019 13.3751 5.53328 13.3469 5.37854C13.3146 5.20149 13.4115 4.98208 13.6053 4.54327L15.2413 0.838229C15.3753 0.534868 15.4422 0.383188 15.5485 0.271944C15.6424 0.173614 15.7578 0.0984064 15.8857 0.0522351C16.0303 0 16.1961 0 16.5278 0H32.0766C32.5689 0 32.815 0 33.003 0.095797C33.1684 0.180062 33.3028 0.314521 33.3871 0.479901C33.4829 0.667913 33.4829 0.914035 33.4829 1.40628V19.9809Z" fill="#0C63E4"/>
    <path d="M143.081 17.2824H146.433C146.976 17.2824 147.503 17.1946 148.014 17.0191C148.524 16.8435 148.979 16.5562 149.378 16.1571C149.777 15.7421 150.097 15.2074 150.336 14.5529C150.576 13.8985 150.695 13.1004 150.695 12.1586C150.695 11.2967 150.607 10.5226 150.432 9.83619C150.272 9.13386 150.001 8.53529 149.618 8.04047C149.235 7.54565 148.724 7.17054 148.086 6.91515C147.463 6.6438 146.689 6.50812 145.763 6.50812H143.081V17.2824ZM139.322 3.34766H146.697C147.798 3.34766 148.82 3.52324 149.761 3.8744C150.719 4.22556 151.541 4.75231 152.228 5.45463C152.93 6.15696 153.473 7.03487 153.856 8.08835C154.255 9.14184 154.454 10.3789 154.454 11.7995C154.454 13.0445 154.295 14.1938 153.975 15.2473C153.656 16.3008 153.169 17.2106 152.515 17.9768C151.876 18.743 151.07 19.3495 150.097 19.7964C149.139 20.2274 148.006 20.4429 146.697 20.4429H139.322V3.34766Z" fill="#212529"/>
    <path d="M125.848 3.34766H129.607V17.2824H137.939V20.4429H125.848V3.34766Z" fill="#212529"/>
    <path d="M111.041 3.34766H123.826V6.50812H114.8V10.1714H123.084V13.0924H114.8V17.2824H124.018V20.4429H111.041V3.34766Z" fill="#212529"/>
    <path d="M99.1441 21.9753C98.777 22.9809 98.2662 23.6992 97.6118 24.1302C96.9574 24.5611 96.0475 24.7766 94.8823 24.7766C94.5311 24.7766 94.18 24.7606 93.8288 24.7287C93.4936 24.7128 93.1504 24.6888 92.7993 24.6569V21.8556C93.1185 21.8875 93.4457 21.9194 93.7809 21.9513C94.1161 21.9833 94.4513 21.9913 94.7865 21.9753C95.2335 21.9274 95.5607 21.7518 95.7682 21.4485C95.9917 21.1453 96.1034 20.8101 96.1034 20.4429C96.1034 20.1716 96.0555 19.9162 95.9597 19.6768L91.6261 8.06445H95.2414L98.0428 16.5402H98.0907L100.796 8.06445H104.316L99.1441 21.9753Z" fill="#212529"/>
    <path d="M85.3692 18.2165C85.9278 18.2165 86.3907 18.1048 86.7578 17.8813C87.1409 17.6578 87.4442 17.3705 87.6677 17.0193C87.9071 16.6522 88.0747 16.2292 88.1705 15.7504C88.2663 15.2715 88.3141 14.7847 88.3141 14.2899C88.3141 13.795 88.2583 13.3082 88.1465 12.8293C88.0508 12.3505 87.8832 11.9275 87.6437 11.5604C87.4043 11.1773 87.093 10.874 86.71 10.6505C86.3428 10.4111 85.8879 10.2914 85.3452 10.2914C84.7865 10.2914 84.3157 10.4111 83.9326 10.6505C83.5655 10.874 83.2622 11.1693 83.0228 11.5364C82.7993 11.9035 82.6397 12.3265 82.5439 12.8054C82.4481 13.2842 82.4002 13.7791 82.4002 14.2899C82.4002 14.7847 82.4481 15.2715 82.5439 15.7504C82.6556 16.2292 82.8232 16.6522 83.0467 17.0193C83.2861 17.3705 83.5974 17.6578 83.9805 17.8813C84.3636 18.1048 84.8265 18.2165 85.3692 18.2165ZM79.1201 8.06469H82.3524V9.64493H82.4002C82.8152 8.97452 83.342 8.48768 83.9805 8.18441C84.6189 7.88113 85.3213 7.72949 86.0874 7.72949C87.0611 7.72949 87.8991 7.91306 88.6015 8.28018C89.3038 8.6473 89.8864 9.13414 90.3493 9.7407C90.8122 10.3473 91.1554 11.0576 91.3788 11.8716C91.6023 12.6697 91.714 13.5077 91.714 14.3856C91.714 15.2156 91.6023 16.0137 91.3788 16.7799C91.1554 17.5461 90.8122 18.2245 90.3493 18.8151C89.9024 19.4057 89.3357 19.8765 88.6493 20.2277C87.9789 20.5789 87.1888 20.7544 86.279 20.7544C85.5128 20.7544 84.8025 20.6028 84.1481 20.2995C83.5096 19.9803 82.9828 19.5174 82.5678 18.9108H82.52V24.7769H79.1201V8.06469Z" fill="#212529"/>
    <path d="M71.4505 18.2165C72.0092 18.2165 72.4721 18.1048 72.8392 17.8813C73.2223 17.6578 73.5256 17.3705 73.7491 17.0193C73.9885 16.6522 74.1561 16.2292 74.2519 15.7504C74.3476 15.2715 74.3955 14.7847 74.3955 14.2899C74.3955 13.795 74.3397 13.3082 74.2279 12.8293C74.1322 12.3505 73.9646 11.9275 73.7251 11.5604C73.4857 11.1773 73.1744 10.874 72.7914 10.6505C72.4242 10.4111 71.9693 10.2914 71.4266 10.2914C70.8679 10.2914 70.3971 10.4111 70.014 10.6505C69.6468 10.874 69.3436 11.1693 69.1041 11.5364C68.8807 11.9035 68.7211 12.3265 68.6253 12.8054C68.5295 13.2842 68.4816 13.7791 68.4816 14.2899C68.4816 14.7847 68.5295 15.2715 68.6253 15.7504C68.737 16.2292 68.9046 16.6522 69.1281 17.0193C69.3675 17.3705 69.6788 17.6578 70.0619 17.8813C70.4449 18.1048 70.9078 18.2165 71.4505 18.2165ZM65.2014 8.06469H68.4337V9.64493H68.4816C68.8966 8.97452 69.4234 8.48768 70.0619 8.18441C70.7003 7.88113 71.4027 7.72949 72.1688 7.72949C73.1425 7.72949 73.9805 7.91306 74.6828 8.28018C75.3852 8.6473 75.9678 9.13414 76.4307 9.7407C76.8936 10.3473 77.2368 11.0576 77.4602 11.8716C77.6837 12.6697 77.7954 13.5077 77.7954 14.3856C77.7954 15.2156 77.6837 16.0137 77.4602 16.7799C77.2368 17.5461 76.8936 18.2245 76.4307 18.8151C75.9837 19.4057 75.4171 19.8765 74.7307 20.2277C74.0603 20.5789 73.2702 20.7544 72.3604 20.7544C71.5942 20.7544 70.8839 20.6028 70.2295 20.2995C69.591 19.9803 69.0642 19.5174 68.6492 18.9108H68.6013V24.7769H65.2014V8.06469Z" fill="#212529"/>
    <path d="M63.2425 6.14898H59.8427V3.34766H63.2425V6.14898ZM59.8427 8.06441H63.2425V20.4429H59.8427V8.06441Z" fill="#212529"/>
    <path d="M44.1973 17.474L53.3675 6.50812H44.9156V3.34766H58.3715V6.31658L49.2014 17.2824H58.611V20.4429H44.1973V17.474Z" fill="#212529"/>
    <!--    <path d="M161.513 3.97082C161.513 3.66725 161.463 3.38822 161.365 3.13375C161.267 2.87928 161.131 2.66053 160.957 2.47749C160.783 2.29445 160.579 2.15382 160.347 2.05561C160.115 1.95293 159.865 1.90159 159.597 1.90159C159.325 1.90159 159.071 1.95293 158.834 2.05561C158.602 2.15382 158.399 2.29445 158.225 2.47749C158.05 2.66053 157.914 2.87928 157.816 3.13375C157.718 3.38822 157.669 3.66725 157.669 3.97082C157.669 4.25654 157.713 4.52441 157.803 4.77441C157.892 5.02442 158.019 5.24317 158.184 5.43067C158.354 5.61818 158.557 5.76773 158.794 5.87934C159.03 5.98649 159.298 6.04006 159.597 6.04006C159.865 6.04006 160.115 5.99095 160.347 5.89274C160.579 5.79006 160.783 5.6472 160.957 5.46416C161.131 5.28112 161.267 5.0646 161.365 4.81459C161.463 4.56012 161.513 4.27887 161.513 3.97082ZM162.048 3.97082C162.048 4.34583 161.981 4.68736 161.847 4.9954C161.718 5.30344 161.539 5.56684 161.312 5.78559C161.088 6.00435 160.827 6.17399 160.528 6.29453C160.233 6.41507 159.923 6.47534 159.597 6.47534C159.236 6.47534 158.903 6.41284 158.6 6.28783C158.3 6.15837 158.041 5.98202 157.823 5.75881C157.608 5.53559 157.439 5.27219 157.314 4.96861C157.193 4.66057 157.133 4.32797 157.133 3.97082C157.133 3.59582 157.198 3.25429 157.327 2.94625C157.461 2.63821 157.64 2.37481 157.863 2.15605C158.091 1.9373 158.354 1.76765 158.653 1.64712C158.952 1.52658 159.267 1.46631 159.597 1.46631C159.923 1.46631 160.233 1.52658 160.528 1.64712C160.827 1.76765 161.088 1.9373 161.312 2.15605C161.539 2.37481 161.718 2.63821 161.847 2.94625C161.981 3.25429 162.048 3.59582 162.048 3.97082ZM159.611 3.8302C159.696 3.8302 159.776 3.82796 159.852 3.8235C159.932 3.81457 160.001 3.79448 160.059 3.76323C160.117 3.73198 160.164 3.68957 160.2 3.63599C160.236 3.57796 160.254 3.4976 160.254 3.39492C160.254 3.3101 160.233 3.24313 160.193 3.19402C160.158 3.14491 160.111 3.10697 160.053 3.08018C159.995 3.05339 159.93 3.03777 159.858 3.0333C159.787 3.02438 159.718 3.01991 159.651 3.01991H159.102V3.8302H159.611ZM159.102 5.40389H158.646V2.63151H159.698C160.033 2.63151 160.285 2.69401 160.454 2.81901C160.624 2.94402 160.709 3.14715 160.709 3.4284C160.709 3.67841 160.64 3.86145 160.501 3.97752C160.363 4.09359 160.191 4.16279 159.986 4.18511L160.763 5.40389H160.247L159.53 4.2186H159.102V5.40389Z" fill="#212529"/>-->
</svg>