<svg width="34" height="35" viewBox="0 0 16 16" fill="none" xmlns="http://www.w3.org/2000/svg">
    <g clip-path="url(#clip0_25_2)">
        <path fill-rule="evenodd" clip-rule="evenodd" d="M15.9542 11.4536C16 11.3596 16 11.2366 16 10.9904V1.70314C16 1.45702 16 1.33396 15.9542 1.23995C15.914 1.15726 15.8497 1.09003 15.7707 1.0479C15.6809 1 15.5632 1 15.328 1H7.89791C7.73944 1 7.66021 1 7.59108 1.02612C7.52997 1.0492 7.47481 1.08681 7.42995 1.13597C7.37919 1.19159 7.34718 1.26743 7.28317 1.41911L6.50139 3.27164C6.4088 3.49104 6.36251 3.60074 6.37792 3.68927C6.39139 3.76664 6.43401 3.83509 6.49621 3.87924C6.56739 3.92975 6.682 3.92975 6.91122 3.92975H9.99378C11.3508 3.92975 12.0293 3.92975 12.3435 4.21056C12.6161 4.45418 12.7608 4.81961 12.7327 5.19356C12.7003 5.62458 12.2205 6.12663 11.2609 7.13065L8.42962 10.0932C7.94993 10.595 7.70993 10.8461 7.69373 11.0616C7.67968 11.2486 7.75201 11.4314 7.88831 11.5532C8.0454 11.6936 8.38467 11.6936 9.06317 11.6936H15.328C15.5632 11.6936 15.6809 11.6936 15.7707 11.6457C15.8497 11.6035 15.914 11.5363 15.9542 11.4536ZM0.0457771 5.13253C0 5.22653 0 5.3496 0 5.59572V14.2971C0 14.5432 0 14.6662 0.0457771 14.7603C0.0860438 14.8429 0.150295 14.9102 0.229323 14.9523C0.319166 15.0002 0.436777 15.0002 0.671998 15.0002H8.10211C8.26057 15.0002 8.33981 15.0002 8.40894 14.9741C8.47005 14.951 8.5252 14.9134 8.57007 14.8642C8.62083 14.8086 8.65283 14.7328 8.71684 14.5811L9.25134 13.3145C9.34393 13.0951 9.39022 12.9854 9.37481 12.8969C9.36135 12.8195 9.31872 12.7511 9.25652 12.7069C9.18534 12.6564 9.07073 12.6564 8.84152 12.6564H6.14624C4.78924 12.6564 4.11071 12.6564 3.79653 12.3756C3.52392 12.132 3.37923 11.7665 3.40736 11.3926C3.43977 10.9616 3.91954 10.4595 4.87914 9.4555L7.7104 6.49299C8.19009 5.99111 8.43009 5.74001 8.44629 5.52452C8.46034 5.33755 8.38801 5.1548 8.2517 5.03299C8.09461 4.89258 7.75535 4.89258 7.07685 4.89258H0.671998C0.436777 4.89258 0.319166 4.89258 0.229323 4.94048C0.150295 4.98261 0.0860438 5.04984 0.0457771 5.13253Z" fill="#0c63e4"/>
    </g>
    <defs>
        <clipPath id="clip0_25_2">
            <rect width="16" height="16" fill="white"/>
        </clipPath>
    </defs>
</svg>
