<svg width="20" height="20" viewBox="0 0 20 20" fill="none" xmlns="http://www.w3.org/2000/svg">
<path d="M19.9999 20H17.0832V19.1667H16.6666V20H15.4166V19.1667H14.9999V20H13.7499V19.1667H13.3333V20H12.0833V19.1667H11.6666V20H10.4166V19.1667H9.99995V20H8.74995V19.1667H8.33329V20H7.0833V19.1667H6.66663V20H5.41664V19.1667H4.99997V20H3.74998V19.1667H3.33332V20H2.08332V19.1667H1.66666V20H0V18.3333H0.833329V17.9167H0V16.6667H0.833329V16.25H0V15H0.833329V14.5833H0V13.3333H0.833329V12.9167H0V11.6667H0.833329V11.25H0V10H0.833329V9.58333H0V8.33333H0.833329V7.91667H0V6.66667H0.833329V6.25H0V5H0.833329V4.58333H0V3.33333H0.833329V2.91667H0V0L19.9999 20ZM4.16664 15.8333H9.94054L4.16664 10.0594V15.8333Z" fill="#FF9500"/>
</svg>
