<svg width="114" height="20" viewBox="0 0 114 20" fill="none" xmlns="http://www.w3.org/2000/svg">
<path d="M106.761 18.1376H100.665V3.52899H106.761C108.946 3.52899 110.558 4.14217 111.595 5.36852C112.632 6.59488 113.151 8.42136 113.151 10.848C113.151 13.2811 112.625 15.1043 111.575 16.3176C110.525 17.5309 108.92 18.1376 106.761 18.1376ZM103.268 5.83819V15.8284H106.702C108.007 15.8284 108.946 15.5316 109.52 14.938C110.101 14.3379 110.391 13.379 110.391 12.0613V9.60531C110.391 8.26154 110.091 7.29938 109.491 6.71882C108.897 6.13173 107.968 5.83819 106.702 5.83819H103.268Z" fill="#1A1A1A"/>
<path d="M98.5805 18.1376H89.5981V3.52899H92.2009V15.7893H98.5805V18.1376Z" fill="#1A1A1A"/>
<path d="M87.1819 18.1376H77.1233V3.52899H87.1819V5.83819H79.726V9.49768H86.1839V11.6601H79.726V15.8284H87.1819V18.1376Z" fill="#1A1A1A"/>
<path d="M67.8753 7.52118H71.5152V9.53683H68.2079V18.1376H65.7324V9.64447C65.7324 9.09 65.8433 8.62033 66.0651 8.23546C66.3391 7.75927 66.9425 7.52118 67.8753 7.52118Z" fill="#1A1A1A"/>
<path d="M53.884 12.8049C53.884 11.0958 54.3407 9.75533 55.2539 8.78338C56.1736 7.80491 57.4196 7.31567 58.9916 7.31567C60.4659 7.31567 61.6465 7.74946 62.5337 8.61704C63.4339 9.4781 63.884 10.6686 63.884 12.1885C63.884 12.6712 63.8546 13.0724 63.7959 13.392H56.4281V13.9693C56.4281 14.6999 56.6629 15.287 57.1325 15.7305C57.6087 16.1741 58.235 16.3959 59.0112 16.3959C59.6309 16.3959 60.156 16.2589 60.5865 15.9849C61.0236 15.7045 61.3204 15.3326 61.4769 14.8695H63.9427C63.7144 15.9197 63.1599 16.7612 62.2793 17.394C61.3661 18.0202 60.2767 18.3333 59.0112 18.3333C57.4065 18.3333 56.1508 17.8408 55.2441 16.8558C54.3374 15.8512 53.884 14.5009 53.884 12.8049ZM56.4281 11.484V11.6895H61.3987V11.4057C61.3987 10.7534 61.1736 10.2315 60.7235 9.84014C60.28 9.44222 59.6896 9.24327 58.9525 9.24327C58.1958 9.24327 57.5859 9.44875 57.1228 9.85971C56.6596 10.2707 56.4281 10.8121 56.4281 11.484Z" fill="#1A1A1A"/>
<path d="M52.1994 18.1376H49.7434V3.33331H52.1994V18.1376Z" fill="#1A1A1A"/>
<path d="M44.7228 7.52118H47.2081V18.1376H44.7228V16.1905H44.5467C44.2336 16.8689 43.777 17.3972 43.1768 17.7756C42.5767 18.1474 41.8657 18.3333 41.0438 18.3333C39.9153 18.3333 39.0412 17.9713 38.4215 17.2472C37.8018 16.5231 37.4919 15.512 37.4919 14.2139V7.52118H39.9968V13.8519C39.9968 15.4827 40.685 16.2981 42.0614 16.2981C42.8703 16.2981 43.516 16.0078 43.9988 15.4272C44.4815 14.8402 44.7228 14.0672 44.7228 13.1083V7.52118Z" fill="#1A1A1A"/>
<path d="M26.7687 18.1376H24.166V3.52899H31.4654C32.8744 3.52899 33.9507 3.9106 34.6943 4.67381C35.438 5.43049 35.8098 6.48398 35.8098 7.83428C35.8098 8.70186 35.6141 9.4455 35.2227 10.0652C34.8313 10.6784 34.2932 11.1056 33.6082 11.347V11.484H34.2638C35.3206 11.484 35.8489 12.0515 35.8489 13.1865V18.1376H33.1679V12.7658H26.7687V18.1376ZM26.7687 5.80884V10.6229H30.8196C31.5045 10.6229 32.0427 10.4566 32.4341 10.1239C32.8255 9.79122 33.0212 9.33786 33.0212 8.76383V7.65815C33.0212 7.05802 32.8255 6.6014 32.4341 6.28829C32.0492 5.96865 31.5111 5.80884 30.8196 5.80884H26.7687Z" fill="#1A1A1A"/>
<path d="M19.9999 20H17.0832V19.1667H16.6666V20H15.4166V19.1667H14.9999V20H13.7499V19.1667H13.3333V20H12.0833V19.1667H11.6666V20H10.4166V19.1667H9.99995V20H8.74995V19.1667H8.33329V20H7.0833V19.1667H6.66663V20H5.41664V19.1667H4.99997V20H3.74998V19.1667H3.33332V20H2.08332V19.1667H1.66666V20H0V18.3333H0.833329V17.9167H0V16.6667H0.833329V16.25H0V15H0.833329V14.5833H0V13.3333H0.833329V12.9167H0V11.6667H0.833329V11.25H0V10H0.833329V9.58333H0V8.33333H0.833329V7.91667H0V6.66667H0.833329V6.25H0V5H0.833329V4.58333H0V3.33333H0.833329V2.91667H0V0L19.9999 20ZM4.16664 15.8333H9.94054L4.16664 10.0594V15.8333Z" fill="#FF9500"/>
</svg>
